<svg xmlns="http://www.w3.org/2000/svg" xmlns:xlink="http://www.w3.org/1999/xlink" width="512" zoomAndPan="magnify" viewBox="0 0 384 383.999986" height="512" preserveAspectRatio="xMidYMid meet" version="1.0"><defs><g/><clipPath id="8c4242bb2b"><rect x="0" width="384" y="0" height="209"/></clipPath></defs><rect x="-38.4" width="460.8" fill="#ffffff" y="-38.399999" height="460.799983" fill-opacity="1"/><rect x="-38.4" width="460.8" fill="#0a192f" y="-38.399999" height="460.799983" fill-opacity="1"/><g transform="matrix(1, 0, 0, 1, 0, 85)"><g clip-path="url(#8c4242bb2b)"><g fill="#64ffda" fill-opacity="1"><g transform="translate(0.081003, 161.429189)"><g><path d="M 21.3125 -20.046875 C 21.3125 -24.347656 19.6875 -27.632812 16.4375 -29.90625 C 13.195312 -32.1875 8.484375 -33.328125 2.296875 -33.328125 L 2.296875 -51.078125 C 8.535156 -51.078125 13.265625 -52.164062 16.484375 -54.34375 C 19.703125 -56.519531 21.3125 -59.632812 21.3125 -63.6875 L 21.3125 -87.890625 C 21.3125 -95.460938 23.707031 -100.796875 28.5 -103.890625 C 33.300781 -106.984375 41.738281 -108.53125 53.8125 -108.53125 L 53.8125 -91.828125 C 48.914062 -91.679688 45.539062 -90.738281 43.6875 -89 C 41.832031 -87.269531 40.90625 -84.722656 40.90625 -81.359375 L 40.90625 -59.171875 C 40.601562 -49.859375 34.8125 -44.363281 23.53125 -42.6875 L 23.53125 -41.796875 C 35.113281 -40.066406 40.90625 -34.820312 40.90625 -26.0625 L 40.90625 -3.1875 C 40.90625 0.175781 41.816406 2.722656 43.640625 4.453125 C 45.472656 6.179688 48.863281 7.125 53.8125 7.28125 L 53.8125 24.046875 C 41.738281 24.046875 33.300781 22.5 28.5 19.40625 C 23.707031 16.3125 21.3125 10.957031 21.3125 3.34375 Z M 21.3125 -20.046875 "/></g></g></g><g fill="#64ffda" fill-opacity="1"><g transform="translate(59.987076, 161.429189)"><g/></g></g><g fill="#64ffda" fill-opacity="1"><g transform="translate(99.479033, 161.429189)"><g><path d="M 55.53125 0 L 32.515625 0 L 32.515625 -89.375 L 3.046875 -89.375 L 3.046875 -108.53125 L 85 -108.53125 L 85 -89.375 L 55.53125 -89.375 Z M 55.53125 0 "/></g></g></g><g fill="#64ffda" fill-opacity="1"><g transform="translate(187.519374, 161.429189)"><g><path d="M 59.765625 -90.9375 C 51.097656 -90.9375 44.390625 -87.679688 39.640625 -81.171875 C 34.890625 -74.660156 32.515625 -65.59375 32.515625 -53.96875 C 32.515625 -29.769531 41.597656 -17.671875 59.765625 -17.671875 C 67.378906 -17.671875 76.609375 -19.578125 87.453125 -23.390625 L 87.453125 -4.078125 C 78.535156 -0.367188 68.585938 1.484375 57.609375 1.484375 C 41.816406 1.484375 29.738281 -3.300781 21.375 -12.875 C 13.007812 -22.457031 8.828125 -36.203125 8.828125 -54.109375 C 8.828125 -65.398438 10.878906 -75.285156 14.984375 -83.765625 C 19.097656 -92.253906 25.003906 -98.765625 32.703125 -103.296875 C 40.398438 -107.828125 49.421875 -110.09375 59.765625 -110.09375 C 70.296875 -110.09375 80.882812 -107.539062 91.53125 -102.4375 L 84.109375 -83.734375 C 80.046875 -85.660156 75.960938 -87.34375 71.859375 -88.78125 C 67.753906 -90.21875 63.722656 -90.9375 59.765625 -90.9375 Z M 59.765625 -90.9375 "/></g></g></g><g fill="#64ffda" fill-opacity="1"><g transform="translate(284.393481, 161.429189)"><g/></g></g><g fill="#64ffda" fill-opacity="1"><g transform="translate(323.885438, 161.429189)"><g><path d="M 38.609375 3.34375 C 38.609375 8.882812 37.59375 13.066406 35.5625 15.890625 C 33.53125 18.710938 30.175781 20.773438 25.5 22.078125 C 20.820312 23.390625 14.351562 24.046875 6.09375 24.046875 L 6.09375 7.28125 C 10.988281 7.175781 14.363281 6.28125 16.21875 4.59375 C 18.070312 2.914062 19 0.320312 19 -3.1875 L 19 -26.203125 C 19 -30.460938 20.457031 -33.914062 23.375 -36.5625 C 26.300781 -39.207031 30.609375 -40.953125 36.296875 -41.796875 L 36.296875 -42.6875 C 25.066406 -44.363281 19.300781 -49.859375 19 -59.171875 L 19 -81.359375 C 19 -84.828125 18.082031 -87.398438 16.25 -89.078125 C 14.425781 -90.765625 11.039062 -91.679688 6.09375 -91.828125 L 6.09375 -108.53125 C 14.351562 -108.53125 20.832031 -107.875 25.53125 -106.5625 C 30.238281 -105.25 33.59375 -103.171875 35.59375 -100.328125 C 37.601562 -97.484375 38.609375 -93.335938 38.609375 -87.890625 L 38.609375 -63.546875 C 38.609375 -59.390625 40.128906 -56.269531 43.171875 -54.1875 C 46.210938 -52.113281 51.023438 -51.078125 57.609375 -51.078125 L 57.609375 -33.328125 C 51.421875 -33.328125 46.707031 -32.3125 43.46875 -30.28125 C 40.226562 -28.257812 38.609375 -24.847656 38.609375 -20.046875 Z M 38.609375 3.34375 "/></g></g></g></g></g></svg>